# xmcd
#
# Track frame offsets:
#	150
#	33522
#	56929
#	73648
#	95294
#	112198
#	147968
#	176097
#	201534
#	225660
#	251855
#	278828
#	306047
#
# Disc length: 4343
#
# Revision: 1
# Processed by: cddbd v1.5.1PL0 Copyright (c) Steve Scherf et al.
# Submitted via: CDex 1.51
# Normalized: r0:DSETVAR1
#
DISCID=ca10f50d
DTITLE=Various Artist - HI-NRG 12inch COLLECTION Vol.1
DYEAR=1900
DGENRE=Disco
TTITLE0=LINDA JO LIZZO - FLY ME HIGH
TTITLE1=NEW BACCARA - CALL ME UP
TTITLE2=FUN FUN - WHITE NIGHT CITY LIGHTS
TTITLE3=DEL' CRIME - LIVIN' IN A FANTASY
TTITLE4=THE FLIRTS - JUST ANOTHER KISS
TTITLE5=ANGLIA REMIX VOL.2 - EAT YOU UP 〜 THE POWER OF LOVE
TTITLE6=JANE SPRING - LOVE VITES BACK
TTITLE7=KENNY MASTERS - SOS-FIRE IN MY HEART
TTITLE8=SISTER SISTER - BLUE NIGHT IN ALCATRAZ
TTITLE9=HANDS OF LOVE feat. THE LEAD SINGER OF CENTURY - DANCE TO DANCE
TTITLE10=NATASHA KING - ON ICE
TTITLE11=BARRY LANE - BLUE BODY DANCER
TTITLE12=JENNIFER RUSH - I SEE A SHADOW (NOT A FANTASY)
EXTD=
EXTT0=
EXTT1=
EXTT2=
EXTT3=
EXTT4=
EXTT5=
EXTT6=
EXTT7=
EXTT8=
EXTT9=
EXTT10=
EXTT11=
EXTT12=
PLAYORDER=
